<?xml version="1.0" encoding="utf-8"?>
<!-- Generator: Adobe Illustrator 23.0.1, SVG Export Plug-In . SVG Version: 6.00 Build 0)  -->
<svg version="1.1" id="Layer_1" xmlns="http://www.w3.org/2000/svg" xmlns:xlink="http://www.w3.org/1999/xlink" x="0px" y="0px"
	 viewBox="0 0 61.5 55.5" style="enable-background:new 0 0 61.5 55.5;" xml:space="preserve">
<style type="text/css">
	.st0{fill:#FFFFFF;}
</style>
<title>community</title>
<path class="st0" d="M55.5,13.1c3.6-0.3,6.3-3.4,6-7c-0.3-3.6-3.4-6.3-7-6c-3.6,0.3-6.3,3.4-6,7c0.1,1,0.4,2,0.9,2.9
	c0.5,0.8,1.2,1.6,2,2.1l0.3,0.2c0.3,0.2,0.5,0.5,0.5,0.6L52,13.2l-5.2,21.6l-0.1,0.5c-0.1,0.3-0.5,0.5-0.8,0.4h-0.4
	c-3.8,0-7.2,2.1-8.9,5.5l-0.1,0.3c-0.1,0.3-0.4,0.5-0.6,0.5l-0.3-0.1L14,36.6l-0.5-0.1c-0.3-0.1-0.4-0.3-0.5-0.5v-0.2
	c-0.1-1.1-0.4-2.2-1-3.1c-1.9-3.1-5.9-4.1-9-2.2s-4.1,5.9-2.2,9c1.9,3.1,5.9,4.1,9,2.2c0.8-0.5,1.5-1.2,2-2l0.2-0.3
	c0.1-0.3,0.4-0.5,0.7-0.4l0.5,0.1l21.5,5.2l0.4,0.1c0.2,0,0.4,0.4,0.3,0.8v0.4c0,1.8,0.5,3.6,1.5,5.1c2.8,4.7,9,6.2,13.6,3.3
	c4.7-2.8,6.2-9,3.3-13.6c-1-1.6-2.3-2.9-4-3.7l-0.3-0.2c-0.3-0.1-0.6-0.4-0.5-0.8c0.1-0.3,0.1-0.5,0.1-0.5l5.3-21.4
	c0,0,0-0.2,0.1-0.4c0.1-0.2,0.3-0.4,0.6-0.4L55.5,13.1z"/>
</svg>
