<?xml version="1.0" encoding="utf-8"?>
<!-- Generator: Adobe Illustrator 23.0.1, SVG Export Plug-In . SVG Version: 6.00 Build 0)  -->
<svg version="1.1" id="Layer_1" xmlns="http://www.w3.org/2000/svg" xmlns:xlink="http://www.w3.org/1999/xlink" x="0px" y="0px"
	 viewBox="0 0 62 69.8" style="enable-background:new 0 0 62 69.8;" xml:space="preserve">
<style type="text/css">
	.st0{fill:#FFFFFF;}
</style>
<title>employment</title>
<path class="st0" d="M17.3,28.4c3.3,7.8,9.6,12.1,13.7,12.1s9.9-4.1,13.2-11.8c0.9-2.1,1.5-4.3,2-6.6c0.6-2.4,0.9-4.8,0.8-7.3
	C47,6.8,39.9,0,31,0S15,6.8,15,14.8c0,1.8,0.1,3.6,0.4,5.4C15.6,23,16.3,25.8,17.3,28.4z"/>
<path class="st0" d="M59.4,51.3c-3.2-3.4-12.2-2.6-16.7-4.9c-2,3.7-2,9.8-5.3,9.8H37c-5-0.8-2.5-13.4-6-13.4S30,55.4,25,56.2h-0.4
	c-3.3,0-3.3-6.1-5.3-9.8c-4.5,2.4-13.5,1.5-16.7,5C0.9,53.2,0,64.7,0,69.8h62C62,64.7,61.1,53.2,59.4,51.3z"/>
</svg>
