<svg id="Layer_1" data-name="Layer 1" xmlns="http://www.w3.org/2000/svg" viewBox="0 0 61.67 56.49"><defs><style>.cls-1{fill:#fff;}</style></defs><title>quality</title><polygon class="cls-1" points="61.67 0 35.29 8.24 39.77 10.44 0 33.71 2.07 37.24 42.09 13.83 41.56 18.96 61.67 0"/><rect class="cls-1" x="0.38" y="40.24" width="17.47" height="6.99" rx="1.42"/><rect class="cls-1" x="0.38" y="49.5" width="17.47" height="6.99" rx="1.42"/><rect class="cls-1" x="20.9" y="40.24" width="17.47" height="6.99" rx="1.42"/><rect class="cls-1" x="20.9" y="49.5" width="17.47" height="6.99" rx="1.42"/><rect class="cls-1" x="20.9" y="30.98" width="17.47" height="6.99" rx="1.42"/><rect class="cls-1" x="43.61" y="40.24" width="17.47" height="6.99" rx="1.42"/><rect class="cls-1" x="43.61" y="49.5" width="17.47" height="6.99" rx="1.42"/><rect class="cls-1" x="43.61" y="30.98" width="17.47" height="6.99" rx="1.42"/><rect class="cls-1" x="43.61" y="21.72" width="17.47" height="6.99" rx="1.42"/></svg>